<svg xmlns="http://www.w3.org/2000/svg" width="256" height="256" viewBox="0 0 256 256"><rect width="256" height="256" rx="28" fill="#26140f"/><rect x="10" y="10" width="236" height="236" rx="22" fill="#3d2018" stroke="#d96d43" stroke-width="4"/><path d="M128 64c26 30 36 54 36 74 0 22-16 40-36 40s-36-18-36-40c0-20 10-44 36-74Z" fill="#ff8f45"/><path d="M128 94c12 16 18 30 18 42 0 12-8 22-18 22s-18-10-18-22c0-12 6-26 18-42Z" fill="#ffd36d"/><text x="128" y="220" fill="#f9e0d8" font-family="Segoe UI, Arial, sans-serif" font-size="20" font-weight="700" text-anchor="middle">Emberfall Sanctuary</text></svg>
